Coordinates
version=1
nRows=10
nColumns=40
inDegrees=yes

Units are S.I. units (second, meters, Newtons, ...)
Angles are in degrees.

endheader
time	pelvis_tilt	pelvis_list	pelvis_rotation	pelvis_tx	pelvis_ty	pelvis_tz	hip_flexion_r	hip_adduction_r	hip_rotation_r	knee_angle_r	knee_angle_r_beta	ankle_angle_r	subtalar_angle_r	mtp_angle_r	hip_flexion_l	hip_adduction_l	hip_rotation_l	knee_angle_l	knee_angle_l_beta	ankle_angle_l	subtalar_angle_l	mtp_angle_l	lumbar_extension	lumbar_bending	lumbar_rotation	arm_flex_r	arm_add_r	arm_rot_r	elbow_flex_r	pro_sup_r	wrist_flex_r	wrist_dev_r	arm_flex_l	arm_add_l	arm_rot_l	elbow_flex_l	pro_sup_l	wrist_flex_l	wrist_dev_l
     13.22000000	     -2.93629861	     -2.67086016	     -1.82921447	      1.07322930	      0.93236554	      0.43253055	     29.06384009	     -7.54273089	     -5.80486691	     69.08339160	     69.08339160	     -0.23447436	    -13.91100280	     -0.91229307	     14.31876622	     -4.06051668	     -8.91135131	     22.16706524	     22.16706524	     12.56913140	    -10.93312240	     -1.29613726	     -9.03666547	      4.55350314	      0.79334567	     10.77665554	    -14.18602256	      1.57653630	     76.47456904	     45.30999919	      0.00000000	      0.00000000	     12.51919076	    -11.80252830	      9.41707087	     29.04524402	     45.20218513	      0.00000000	      0.00000000
     13.23121429	     -2.75051318	     -2.83786449	     -2.03466135	      1.07299691	      0.93327526	      0.43249121	     30.00223693	     -7.29601064	     -5.74908417	     67.42632140	     67.42632140	     -0.24767607	    -14.05081095	     -1.30115507	     13.06970113	     -4.21627118	     -9.26473697	     21.51253179	     21.51253179	     12.89202151	    -10.46453906	     -1.82892607	     -9.13871490	      4.80069876	      1.02381084	      9.10785785	    -14.28813774	      1.27277689	     71.91278846	     45.45959945	      0.00000000	      0.00000000	     14.77864518	    -12.13719556	      9.57531641	     29.30591945	     45.24187270	      0.00000000	      0.00000000
     13.24242857	     -2.53147085	     -2.97906113	     -2.23239287	      1.07279739	      0.93418533	      0.43242977	     30.74459661	     -7.05652832	     -5.68711055	     65.53382227	     65.53382227	     -0.27992948	    -14.10995625	     -1.51756453	     11.73499726	     -4.29108342	     -9.50426500	     20.73554246	     20.73554246	     13.12301251	    -10.17883033	     -2.26157284	     -9.28446557	      5.02181034	      1.10546848	      7.88081168	    -14.22991255	      0.99776544	     66.80240757	     45.62540539	      0.00000000	      0.00000000	     16.86078087	    -12.59846586	      9.80206649	     29.77675324	     45.27009642	      0.00000000	      0.00000000
     13.25364286	     -2.23961365	     -3.13993379	     -2.42658887	      1.07266012	      0.93509515	      0.43239769	     31.25538585	     -6.76793958	     -5.61954589	     63.41477969	     63.41477969	     -0.22759840	    -14.09964041	     -1.24430037	     10.30388682	     -4.36350767	     -9.73333144	     19.92620237	     19.92620237	     13.45273529	     -9.90585276	     -2.35201466	     -9.60667716	      5.28898118	      1.50289138	      5.99311435	    -14.69948246	      1.10720185	     63.66539624	     45.71498991	      0.00000000	      0.00000000	     18.93051474	    -12.83839892	      9.76031595	     30.74882494	     45.31655465	      0.00000000	      0.00000000
     13.26485714	     -1.99346970	     -3.25506511	     -2.62549060	      1.07247355	      0.93574531	      0.43244978	     31.72085733	     -6.49979666	     -5.48962015	     61.11369867	     61.11369867	     -0.16425524	    -13.95272324	     -0.89855819	      8.93773477	     -4.39442307	     -9.99446500	     19.11993820	     19.11993820	     13.75169278	     -9.53590357	     -2.59674762	     -9.85358563	      5.50175946	      1.86879105	      4.63268166	    -14.85503223	      0.94789461	     59.18285648	     45.86228479	      0.00000000	      0.00000000	     20.99513740	    -13.10797164	      9.81965286	     31.54791808	     45.34958677	      0.00000000	      0.00000000
     13.27607143	     -1.92190825	     -3.30563610	     -2.76322982	      1.07220369	      0.93595107	      0.43260301	     32.25086723	     -6.33120093	     -5.45376635	     58.58709300	     58.58709300	     -0.01009138	    -13.68685188	     -0.45776847	      7.86363569	     -4.38344290	    -10.26061020	     18.44025416	     18.44025416	     13.83243166	     -9.29755673	     -3.37746227	     -9.75283322	      5.56607496	      1.04883068	      5.46568063	    -13.67457516	     -0.24992666	     50.46720691	     46.19007250	      0.00000000	      0.00000000	     22.48467183	    -14.06880127	     10.26709997	     31.80157058	     45.34015312	      0.00000000	      0.00000000
     13.28728571	     -1.73371261	     -3.42280555	     -2.92035574	      1.07206644	      0.93623618	      0.43277392	     32.46489371	     -6.05962422	     -5.40565762	     55.71493608	     55.71493608	      0.10720773	    -13.33444498	     -0.07704350	      6.58663816	     -4.39927155	    -10.45321383	     17.65386382	     17.65386382	     14.14689248	     -9.01658980	     -3.46088152	    -10.00269741	      5.81439257	      1.40496002	      3.73981699	    -14.07265603	     -0.29819441	     47.89254901	     46.26643021	      0.00000000	      0.00000000	     24.22375504	    -14.31647821	     10.14226533	     32.99488136	     45.39108343	      0.00000000	      0.00000000
     13.29850000	     -1.66545536	     -3.38404739	     -3.09071691	      1.07186750	      0.93604473	      0.43312795	     32.75518888	     -5.92277646	     -5.29101396	     52.66792553	     52.66792553	      0.17509724	    -12.86573411	     -0.02650662	      5.49111422	     -4.28283942	    -10.74302625	     16.93348694	     16.93348694	     14.28360167	     -8.70747883	     -4.17190553	     -9.98566464	      5.80944433	      1.01846562	      4.21608191	    -13.28824503	     -1.81517716	     40.21524498	     46.57890575	      0.00000000	      0.00000000	     25.44396306	    -15.23565955	     10.24299126	     34.41637987	     45.43034709	      0.00000000	      0.00000000
     13.30971429	     -1.54021221	     -3.38475960	     -3.25643099	      1.07187713	      0.93582237	      0.43351788	     32.79079340	     -5.74537710	     -5.27076049	     49.31622876	     49.31622876	      0.39250025	    -12.18842089	      0.13023379	      4.27955185	     -4.18349238	    -11.02762060	     16.14543040	     16.14543040	     14.57953585	     -8.37565212	     -4.31174777	    -10.13352907	      5.88736485	      1.38041018	      2.56750113	    -13.58856849	     -2.18266516	     37.62274098	     46.67076644	      0.00000000	      0.00000000	     27.00372766	    -15.49015573	     10.03572592	     35.86997034	     45.49326373	      0.00000000	      0.00000000
     13.32092857	     -1.53937028	     -3.38531934	     -3.38606462	      1.07186967	      0.93531175	      0.43397295	     32.74840581	     -5.55955460	     -5.35499247	     45.57393495	     45.57393495	      0.21939141	    -11.45703338	     -0.69361504	      3.25617286	     -4.11017357	    -11.28671996	     15.43570522	     15.43570522	     14.69284494	     -8.04227815	     -4.97267283	    -10.09889205	      6.01794695	      0.86205721	      2.88674906	    -12.98720648	     -4.65922815	     31.25853971	     47.00347233	      0.00000000	      0.00000000	     27.61680570	    -16.47444210	      9.74005956	     38.16382433	     45.59543080	      0.00000000	      0.00000000
